<svg width="215" height="40" viewBox="0 0 215 40" fill="none" xmlns="http://www.w3.org/2000/svg">
<rect width="40" height="40" rx="5" fill="#0E7490"/>
<path d="M19.0469 19.082V25.8438C18.7812 26.1641 18.3711 26.5117 17.8164 26.8867C17.2617 27.2539 16.5469 27.5703 15.6719 27.8359C14.7969 28.1016 13.7383 28.2344 12.4961 28.2344C11.3945 28.2344 10.3906 28.0547 9.48438 27.6953C8.57812 27.3281 7.79688 26.793 7.14062 26.0898C6.49219 25.3867 5.99219 24.5273 5.64062 23.5117C5.28906 22.4883 5.11328 21.3203 5.11328 20.0078V18.9414C5.11328 17.6289 5.28125 16.4609 5.61719 15.4375C5.96094 14.4141 6.44922 13.5508 7.08203 12.8477C7.71484 12.1445 8.46875 11.6094 9.34375 11.2422C10.2188 10.875 11.1914 10.6914 12.2617 10.6914C13.7461 10.6914 14.9648 10.9336 15.918 11.418C16.8711 11.8945 17.5977 12.5586 18.0977 13.4102C18.6055 14.2539 18.918 15.2227 19.0352 16.3164H15.625C15.5391 15.7383 15.375 15.2344 15.1328 14.8047C14.8906 14.375 14.543 14.0391 14.0898 13.7969C13.6445 13.5547 13.0664 13.4336 12.3555 13.4336C11.7695 13.4336 11.2461 13.5547 10.7852 13.7969C10.332 14.0312 9.94922 14.3789 9.63672 14.8398C9.32422 15.3008 9.08594 15.8711 8.92188 16.5508C8.75781 17.2305 8.67578 18.0195 8.67578 18.918V20.0078C8.67578 20.8984 8.76172 21.6875 8.93359 22.375C9.10547 23.0547 9.35938 23.6289 9.69531 24.0977C10.0391 24.5586 10.4609 24.9062 10.9609 25.1406C11.4609 25.375 12.043 25.4922 12.707 25.4922C13.2617 25.4922 13.7227 25.4453 14.0898 25.3516C14.4648 25.2578 14.7656 25.1445 14.9922 25.0117C15.2266 24.8711 15.4062 24.7383 15.5312 24.6133V21.5898H12.3203V19.082H19.0469ZM28.5625 20.5117H24.1797L24.1562 18.0977H27.8359C28.4844 18.0977 29.0156 18.0156 29.4297 17.8516C29.8438 17.6797 30.1523 17.4336 30.3555 17.1133C30.5664 16.7852 30.6719 16.3867 30.6719 15.918C30.6719 15.3867 30.5703 14.957 30.3672 14.6289C30.1719 14.3008 29.8633 14.0625 29.4414 13.9141C29.0273 13.7656 28.4922 13.6914 27.8359 13.6914H25.3984V28H21.8828V10.9375H27.8359C28.8281 10.9375 29.7148 11.0312 30.4961 11.2188C31.2852 11.4062 31.9531 11.6914 32.5 12.0742C33.0469 12.457 33.4648 12.9414 33.7539 13.5273C34.043 14.1055 34.1875 14.793 34.1875 15.5898C34.1875 16.293 34.0273 16.9414 33.707 17.5352C33.3945 18.1289 32.8984 18.6133 32.2188 18.9883C31.5469 19.3633 30.668 19.5703 29.582 19.6094L28.5625 20.5117ZM28.4102 28H23.2188L24.5898 25.2578H28.4102C29.0273 25.2578 29.5312 25.1602 29.9219 24.9648C30.3125 24.7617 30.6016 24.4883 30.7891 24.1445C30.9766 23.8008 31.0703 23.4062 31.0703 22.9609C31.0703 22.4609 30.9844 22.0273 30.8125 21.6602C30.6484 21.293 30.3828 21.0117 30.0156 20.8164C29.6484 20.6133 29.1641 20.5117 28.5625 20.5117H25.1758L25.1992 18.0977H29.418L30.2266 19.0469C31.2656 19.0312 32.1016 19.2148 32.7344 19.5977C33.375 19.9727 33.8398 20.4609 34.1289 21.0625C34.4258 21.6641 34.5742 22.3086 34.5742 22.9961C34.5742 24.0898 34.3359 25.0117 33.8594 25.7617C33.3828 26.5039 32.6836 27.0625 31.7617 27.4375C30.8477 27.8125 29.7305 28 28.4102 28Z" fill="white"/>
<path d="M71.2578 18.8828V25.8906C70.9688 26.2109 70.5234 26.5547 69.9219 26.9219C69.3281 27.2812 68.5781 27.5898 67.6719 27.8477C66.7656 28.1055 65.6992 28.2344 64.4727 28.2344C63.3398 28.2344 62.3125 28.0547 61.3906 27.6953C60.4688 27.3281 59.6758 26.793 59.0117 26.0898C58.3555 25.3789 57.8477 24.5117 57.4883 23.4883C57.1367 22.457 56.9609 21.2773 56.9609 19.9492V19C56.9609 17.6719 57.1406 16.4922 57.5 15.4609C57.8594 14.4297 58.3633 13.5625 59.0117 12.8594C59.668 12.1484 60.4375 11.6094 61.3203 11.2422C62.2109 10.875 63.1875 10.6914 64.25 10.6914C65.8203 10.6914 67.0977 10.9414 68.082 11.4414C69.0664 11.9336 69.8125 12.6172 70.3203 13.4922C70.8281 14.3594 71.1367 15.3633 71.2461 16.5039H67.2969C67.2188 15.9414 67.0703 15.4648 66.8516 15.0742C66.6406 14.6758 66.3359 14.375 65.9375 14.1719C65.5391 13.9609 65.0234 13.8555 64.3906 13.8555C63.8984 13.8555 63.4492 13.9609 63.043 14.1719C62.6445 14.3828 62.3047 14.7031 62.0234 15.1328C61.7422 15.5547 61.5234 16.0859 61.3672 16.7266C61.2188 17.3672 61.1445 18.1172 61.1445 18.9766V19.9492C61.1445 20.8008 61.2148 21.5469 61.3555 22.1875C61.5039 22.8281 61.7227 23.3633 62.0117 23.793C62.3086 24.2148 62.6836 24.5352 63.1367 24.7539C63.5977 24.9648 64.1406 25.0703 64.7656 25.0703C65.2031 25.0703 65.5781 25.0352 65.8906 24.9648C66.2031 24.8867 66.4609 24.793 66.6641 24.6836C66.875 24.5664 67.0352 24.457 67.1445 24.3555V21.707H64.2852V18.8828H71.2578ZM79.857 18.4609V28H75.9078V15.3203H79.5992L79.857 18.4609ZM83.607 15.2266L83.5367 18.8945C83.3805 18.8789 83.1695 18.8594 82.9039 18.8359C82.6383 18.8125 82.4156 18.8008 82.2359 18.8008C81.775 18.8008 81.3766 18.8555 81.0406 18.9648C80.7125 19.0664 80.4391 19.2227 80.2203 19.4336C80.0094 19.6367 79.8531 19.8945 79.7516 20.207C79.6578 20.5195 79.6148 20.8828 79.6227 21.2969L78.9078 20.8281C78.9078 19.9766 78.9898 19.2031 79.1539 18.5078C79.3258 17.8047 79.568 17.1992 79.8805 16.6914C80.193 16.1758 80.5719 15.7812 81.0172 15.5078C81.4625 15.2266 81.9625 15.0859 82.5172 15.0859C82.7125 15.0859 82.9039 15.0977 83.0914 15.1211C83.2867 15.1445 83.4586 15.1797 83.607 15.2266ZM86.4523 21.7891V21.543C86.4523 20.6133 86.5852 19.7578 86.8508 18.9766C87.1164 18.1875 87.507 17.5039 88.0227 16.9258C88.5383 16.3477 89.175 15.8984 89.9328 15.5781C90.6906 15.25 91.5656 15.0859 92.5578 15.0859C93.5578 15.0859 94.4367 15.25 95.1945 15.5781C95.9602 15.8984 96.6008 16.3477 97.1164 16.9258C97.632 17.5039 98.0227 18.1875 98.2883 18.9766C98.5539 19.7578 98.6867 20.6133 98.6867 21.543V21.7891C98.6867 22.7109 98.5539 23.5664 98.2883 24.3555C98.0227 25.1367 97.632 25.8203 97.1164 26.4062C96.6008 26.9844 95.9641 27.4336 95.2062 27.7539C94.4484 28.0742 93.5734 28.2344 92.5812 28.2344C91.5891 28.2344 90.7102 28.0742 89.9445 27.7539C89.1789 27.4336 88.5383 26.9844 88.0227 26.4062C87.507 25.8203 87.1164 25.1367 86.8508 24.3555C86.5852 23.5664 86.4523 22.7109 86.4523 21.7891ZM90.4016 21.543V21.7891C90.4016 22.2656 90.4367 22.7109 90.507 23.125C90.5773 23.5391 90.6945 23.9023 90.8586 24.2148C91.0227 24.5195 91.2453 24.7578 91.5266 24.9297C91.8078 25.1016 92.1594 25.1875 92.5812 25.1875C92.9953 25.1875 93.3391 25.1016 93.6125 24.9297C93.8937 24.7578 94.1164 24.5195 94.2805 24.2148C94.4445 23.9023 94.5617 23.5391 94.632 23.125C94.7023 22.7109 94.7375 22.2656 94.7375 21.7891V21.543C94.7375 21.082 94.7023 20.6484 94.632 20.2422C94.5617 19.8281 94.4445 19.4648 94.2805 19.1523C94.1164 18.832 93.8937 18.582 93.6125 18.4023C93.3312 18.2227 92.9797 18.1328 92.5578 18.1328C92.1437 18.1328 91.7961 18.2227 91.5148 18.4023C91.2414 18.582 91.0227 18.832 90.8586 19.1523C90.6945 19.4648 90.5773 19.8281 90.507 20.2422C90.4367 20.6484 90.4016 21.082 90.4016 21.543ZM108.2 25.1875C108.567 25.1875 108.88 25.1211 109.138 24.9883C109.403 24.8477 109.602 24.6523 109.735 24.4023C109.876 24.1445 109.942 23.8359 109.934 23.4766H113.649C113.657 24.4297 113.423 25.2656 112.946 25.9844C112.477 26.6953 111.837 27.25 111.024 27.6484C110.22 28.0391 109.309 28.2344 108.294 28.2344C107.302 28.2344 106.434 28.0742 105.692 27.7539C104.95 27.4258 104.329 26.9727 103.829 26.3945C103.337 25.8086 102.966 25.125 102.716 24.3438C102.473 23.5625 102.352 22.7148 102.352 21.8008V21.5312C102.352 20.6172 102.473 19.7695 102.716 18.9883C102.966 18.1992 103.337 17.5156 103.829 16.9375C104.329 16.3516 104.946 15.8984 105.68 15.5781C106.423 15.25 107.286 15.0859 108.27 15.0859C109.325 15.0859 110.255 15.2852 111.059 15.6836C111.872 16.082 112.509 16.6602 112.97 17.418C113.43 18.1758 113.657 19.0938 113.649 20.1719H109.934C109.942 19.7891 109.884 19.4453 109.759 19.1406C109.634 18.8359 109.438 18.5938 109.173 18.4141C108.915 18.2266 108.583 18.1328 108.177 18.1328C107.77 18.1328 107.442 18.2227 107.192 18.4023C106.942 18.582 106.751 18.832 106.618 19.1523C106.493 19.4648 106.407 19.8242 106.36 20.2305C106.321 20.6367 106.302 21.0703 106.302 21.5312V21.8008C106.302 22.2695 106.321 22.7109 106.36 23.125C106.407 23.5312 106.497 23.8906 106.63 24.2031C106.763 24.5078 106.954 24.75 107.204 24.9297C107.454 25.1016 107.786 25.1875 108.2 25.1875ZM123.877 28.2344C122.846 28.2344 121.924 28.0742 121.112 27.7539C120.299 27.4258 119.612 26.9766 119.049 26.4062C118.495 25.8359 118.069 25.1797 117.772 24.4375C117.483 23.6953 117.338 22.9102 117.338 22.082V21.6367C117.338 20.707 117.467 19.8477 117.725 19.0586C117.983 18.2617 118.366 17.5664 118.873 16.9727C119.381 16.3789 120.018 15.918 120.784 15.5898C121.549 15.2539 122.44 15.0859 123.455 15.0859C124.354 15.0859 125.159 15.2305 125.87 15.5195C126.58 15.8086 127.182 16.2227 127.674 16.7617C128.174 17.3008 128.553 17.9531 128.811 18.7188C129.077 19.4844 129.209 20.3438 129.209 21.2969V22.9023H118.85V20.4297H125.354V20.125C125.362 19.7031 125.287 19.3438 125.131 19.0469C124.983 18.75 124.764 18.5234 124.475 18.3672C124.186 18.2109 123.834 18.1328 123.42 18.1328C122.991 18.1328 122.635 18.2266 122.354 18.4141C122.08 18.6016 121.866 18.8594 121.709 19.1875C121.561 19.5078 121.455 19.8789 121.393 20.3008C121.33 20.7227 121.299 21.168 121.299 21.6367V22.082C121.299 22.5508 121.362 22.9766 121.487 23.3594C121.62 23.7422 121.807 24.0703 122.049 24.3438C122.299 24.6094 122.596 24.8164 122.94 24.9648C123.291 25.1133 123.69 25.1875 124.135 25.1875C124.674 25.1875 125.205 25.0859 125.729 24.8828C126.252 24.6797 126.702 24.3438 127.077 23.875L128.87 26.0078C128.612 26.375 128.245 26.7305 127.768 27.0742C127.299 27.418 126.737 27.6992 126.08 27.918C125.424 28.1289 124.69 28.2344 123.877 28.2344ZM137.199 18.4609V28H133.25V15.3203H136.941L137.199 18.4609ZM140.949 15.2266L140.879 18.8945C140.723 18.8789 140.512 18.8594 140.246 18.8359C139.98 18.8125 139.758 18.8008 139.578 18.8008C139.117 18.8008 138.719 18.8555 138.383 18.9648C138.055 19.0664 137.781 19.2227 137.562 19.4336C137.352 19.6367 137.195 19.8945 137.094 20.207C137 20.5195 136.957 20.8828 136.965 21.2969L136.25 20.8281C136.25 19.9766 136.332 19.2031 136.496 18.5078C136.668 17.8047 136.91 17.1992 137.223 16.6914C137.535 16.1758 137.914 15.7812 138.359 15.5078C138.805 15.2266 139.305 15.0859 139.859 15.0859C140.055 15.0859 140.246 15.0977 140.434 15.1211C140.629 15.1445 140.801 15.1797 140.949 15.2266ZM148.81 26.5117L152.091 15.3203H156.334L151.236 29.8867C151.127 30.207 150.982 30.5508 150.802 30.918C150.623 31.293 150.377 31.6484 150.064 31.9844C149.752 32.3203 149.349 32.5938 148.857 32.8047C148.373 33.0156 147.771 33.1211 147.052 33.1211C146.67 33.1211 146.388 33.1016 146.209 33.0625C146.037 33.0312 145.771 32.9727 145.412 32.8867V30.0625C145.513 30.0625 145.599 30.0625 145.67 30.0625C145.748 30.0625 145.834 30.0625 145.927 30.0625C146.349 30.0625 146.685 30.0195 146.935 29.9336C147.193 29.8477 147.388 29.7227 147.521 29.5586C147.662 29.3945 147.771 29.1953 147.849 28.9609L148.81 26.5117ZM147.978 15.3203L150.474 24.1914L150.908 28.375H148.259L143.748 15.3203H147.978ZM175.29 20.7461H170.895L170.872 18.0508H174.434C175.075 18.0508 175.587 17.9805 175.97 17.8398C176.352 17.6914 176.63 17.4766 176.802 17.1953C176.981 16.9141 177.071 16.5625 177.071 16.1406C177.071 15.6562 176.981 15.2656 176.802 14.9688C176.622 14.6719 176.337 14.457 175.946 14.3242C175.563 14.1836 175.067 14.1133 174.458 14.1133H172.442V28H168.329V10.9375H174.458C175.512 10.9375 176.454 11.0352 177.282 11.2305C178.11 11.418 178.813 11.707 179.391 12.0977C179.977 12.4883 180.423 12.9805 180.727 13.5742C181.032 14.1602 181.184 14.8516 181.184 15.6484C181.184 16.3438 181.036 16.9961 180.739 17.6055C180.442 18.2148 179.946 18.7109 179.251 19.0938C178.563 19.4688 177.622 19.6641 176.427 19.6797L175.29 20.7461ZM175.126 28H169.899L171.305 24.8359H175.126C175.688 24.8359 176.137 24.75 176.473 24.5781C176.817 24.3984 177.063 24.1641 177.212 23.875C177.368 23.5781 177.446 23.25 177.446 22.8906C177.446 22.4531 177.372 22.0742 177.223 21.7539C177.083 21.4336 176.856 21.1875 176.544 21.0156C176.231 20.8359 175.813 20.7461 175.29 20.7461H171.833L171.856 18.0508H175.993L176.954 19.1289C178.095 19.082 178.997 19.2422 179.661 19.6094C180.333 19.9766 180.813 20.4609 181.102 21.0625C181.391 21.6641 181.536 22.293 181.536 22.9492C181.536 24.0664 181.294 25 180.809 25.75C180.333 26.5 179.618 27.0625 178.665 27.4375C177.712 27.8125 176.532 28 175.126 28ZM193.44 24.918V15.3203H197.401V28H193.698L193.44 24.918ZM193.815 22.3398L194.846 22.3164C194.846 23.168 194.745 23.957 194.541 24.6836C194.338 25.4023 194.038 26.0273 193.639 26.5586C193.248 27.0898 192.764 27.5039 192.186 27.8008C191.616 28.0898 190.955 28.2344 190.205 28.2344C189.58 28.2344 189.006 28.1484 188.483 27.9766C187.967 27.7969 187.522 27.5195 187.147 27.1445C186.772 26.7617 186.479 26.2734 186.268 25.6797C186.065 25.0781 185.963 24.3594 185.963 23.5234V15.3203H189.913V23.5469C189.913 23.8281 189.948 24.0703 190.018 24.2734C190.088 24.4766 190.19 24.6484 190.323 24.7891C190.455 24.9219 190.62 25.0234 190.815 25.0938C191.018 25.1562 191.248 25.1875 191.506 25.1875C192.1 25.1875 192.565 25.0625 192.901 24.8125C193.237 24.5625 193.471 24.2227 193.604 23.793C193.745 23.3633 193.815 22.8789 193.815 22.3398ZM209.27 25.0938V10H213.242V28H209.68L209.27 25.0938ZM201.488 21.8125V21.5664C201.488 20.6055 201.594 19.7305 201.805 18.9414C202.016 18.1445 202.328 17.4609 202.742 16.8906C203.156 16.3125 203.672 15.8672 204.289 15.5547C204.906 15.2422 205.617 15.0859 206.422 15.0859C207.141 15.0859 207.77 15.2539 208.309 15.5898C208.848 15.918 209.309 16.3789 209.691 16.9727C210.074 17.5664 210.387 18.2617 210.629 19.0586C210.871 19.8477 211.055 20.6992 211.18 21.6133V21.9062C211.055 22.7656 210.871 23.5781 210.629 24.3438C210.387 25.1016 210.074 25.7734 209.691 26.3594C209.309 26.9453 208.844 27.4062 208.297 27.7422C207.758 28.0703 207.125 28.2344 206.398 28.2344C205.594 28.2344 204.883 28.0742 204.266 27.7539C203.656 27.4336 203.145 26.9844 202.73 26.4062C202.324 25.8281 202.016 25.1484 201.805 24.3672C201.594 23.5859 201.488 22.7344 201.488 21.8125ZM205.438 21.5664V21.8125C205.438 22.2891 205.469 22.7305 205.531 23.1367C205.594 23.543 205.699 23.9023 205.848 24.2148C206.004 24.5195 206.207 24.7578 206.457 24.9297C206.715 25.1016 207.031 25.1875 207.406 25.1875C207.914 25.1875 208.332 25.0664 208.66 24.8242C208.996 24.582 209.242 24.2383 209.398 23.793C209.562 23.3477 209.633 22.8242 209.609 22.2227V21.2969C209.625 20.7812 209.59 20.3281 209.504 19.9375C209.418 19.5391 209.281 19.207 209.094 18.9414C208.914 18.6758 208.684 18.4766 208.402 18.3438C208.129 18.2031 207.805 18.1328 207.43 18.1328C207.062 18.1328 206.75 18.2188 206.492 18.3906C206.242 18.5625 206.039 18.8047 205.883 19.1172C205.727 19.4219 205.613 19.7852 205.543 20.207C205.473 20.6211 205.438 21.0742 205.438 21.5664Z" fill="#0E7490"/>
</svg>
